<?xml version="1.0" standalone="no"?><!DOCTYPE svg PUBLIC "-//W3C//DTD SVG 1.1//EN" "http://www.w3.org/Graphics/SVG/1.1/DTD/svg11.dtd"><svg t="1577975352847" class="icon" viewBox="0 0 1024 1024" version="1.1" xmlns="http://www.w3.org/2000/svg" p-id="1914" xmlns:xlink="http://www.w3.org/1999/xlink" width="24" height="24"><defs><style type="text/css"></style></defs><path d="M644 371.2c9.9 9.9 9.9 25.9 0 35.7L425.1 625.8c-9.9 9.9-25.9 9.9-35.7 0-9.9-9.9-9.9-25.9 0-35.7l218.9-218.9c9.8-9.8 25.8-9.8 35.7 0z m-92 281.7l-209.1 209-186.4-186.4 209.1-209.1c9.9-9.9 9.9-25.9 0-35.7-9.9-9.9-25.9-9.9-35.7 0L85.1 675.5l257.8 257.8 244.8-244.8c9.9-9.9 9.9-25.9 0-35.7s-25.9-9.8-35.7 0.1zM698.6 62.1L453.8 306.8c-9.9 9.9-9.9 25.9 0 35.7 9.9 9.9 25.9 9.9 35.7 0l209.1-209.1L885 319.8 675.9 528.9c-9.9 9.9-9.9 25.9 0 35.7 9.9 9.9 25.9 9.9 35.7 0l244.8-244.8L698.6 62.1z" p-id="1915" fill="#dbdbdb"></path></svg>